<svg xmlns="http://www.w3.org/2000/svg" xmlns:xlink="http://www.w3.org/1999/xlink" viewBox="0 0 132 132">
  <defs>
    <style>
      .cls-1, .cls-10 {
        fill: #fff;
      }

      .cls-1 {
        stroke: #f4f4f4;
      }

      .cls-2 {
        opacity: 0.05;
      }

      .cls-2, .cls-4 {
        clip-path: url(#clip-path);
      }

      .cls-3 {
        fill: #ca0014;
      }

      .cls-15, .cls-5, .cls-8 {
        fill: #e2b228;
      }

      .cls-15, .cls-5 {
        stroke: #000;
      }

      .cls-5 {
        stroke-width: 0.763px;
      }

      .cls-26, .cls-6 {
        fill: none;
      }

      .cls-16, .cls-17, .cls-6 {
        stroke: #5b452e;
      }

      .cls-16, .cls-6 {
        stroke-miterlimit: 10;
      }

      .cls-7 {
        fill: #ffd900;
      }

      .cls-9 {
        fill: #472d13;
      }

      .cls-11 {
        fill: #fffcd3;
      }

      .cls-12 {
        fill: #eeeac5;
      }

      .cls-13 {
        fill: #e6e6e6;
      }

      .cls-14 {
        fill: #ededed;
      }

      .cls-15 {
        stroke-width: 0.532px;
      }

      .cls-16 {
        fill: #6c6262;
      }

      .cls-17 {
        fill: #bfe3e8;
        stroke-width: 2px;
      }

      .cls-18 {
        fill: #e60012;
      }

      .cls-19 {
        fill: url(#linear-gradient);
      }

      .cls-20 {
        fill: #333;
      }

      .cls-21 {
        fill: #4e4d4d;
      }

      .cls-22 {
        fill: #666767;
      }

      .cls-23 {
        fill: #f4c046;
      }

      .cls-24 {
        fill: #deae3f;
      }

      .cls-25 {
        stroke: none;
      }
    </style>
    <clipPath id="clip-path">
      <circle id="椭圆_382" data-name="椭圆 382" class="cls-1" cx="65" cy="65" r="65"/>
    </clipPath>
    <linearGradient id="linear-gradient" x1="-2.944" y1="-5.266" x2="-1.911" y2="-5.266" gradientUnits="objectBoundingBox">
      <stop offset="0" stop-color="#fff"/>
      <stop offset="1" stop-color="#bababa"/>
    </linearGradient>
  </defs>
  <g id="头像_老虎" data-name="头像 老虎" transform="translate(-1774 1890)">
    <g id="椭圆_383" data-name="椭圆 383" class="cls-1" transform="translate(1775 -1889)">
      <circle class="cls-25" cx="65" cy="65" r="65"/>
      <circle class="cls-26" cx="65" cy="65" r="65.5"/>
    </g>
    <g id="蒙版组_152" data-name="蒙版组 152" class="cls-2" transform="translate(1775 -1889)">
      <path id="联合_25" data-name="联合 25" class="cls-3" d="M69.535,156.889A16.871,16.871,0,1,1,86.406,173.76,16.859,16.859,0,0,1,69.535,156.889Zm5.435,0a11.436,11.436,0,1,0,11.436-11.436A11.423,11.423,0,0,0,74.97,156.889Zm66.015-28.774-16.3,3.861,6.649-14.907a26.263,26.263,0,1,1,9.651,11.046ZM25.6,126.107l-13.26,3.141,5.409-12.127A21.277,21.277,0,0,1,20.538,94.7l-2.879,5.933C16.437,103.25,16,105.6,16.611,107.7a7.482,7.482,0,0,0,4.363,4.885,7.428,7.428,0,0,0,3.053.7,7.25,7.25,0,0,0,3.141-.785l-1.048,2.094,4.885,2.356,9.161-18.584-4.974-2.442-4.188,8.549c-.785,1.4-1.309,2.443-1.744,3.054a7.1,7.1,0,0,1-1.4,1.4,5.638,5.638,0,0,1-2.53.959,4.728,4.728,0,0,1-2.618-.522,4.057,4.057,0,0,1-2.442-3.054c-.263-1.4.174-3.053,1.133-5.06l4.8-9.772-1.483-.785a21.322,21.322,0,0,1,33.5,20.067c-.087-.263-.174-.611-.261-.873a10.263,10.263,0,0,0-5.583-6.194,9.549,9.549,0,0,0-3.752-.959,9.838,9.838,0,0,0-3.839.611l1.135-2.269-3.4-1.657L30.484,124.1l3.314,1.657,4.013-8.288a11.448,11.448,0,0,0,2.007,3.491,8.739,8.739,0,0,0,3.141,2.442,11.6,11.6,0,0,0,4.188,1.135,9.936,9.936,0,0,0,4.1-.7c.174,0,.261-.087.435-.176a21.137,21.137,0,0,1-14.59,5.794A21.35,21.35,0,0,1,25.6,126.107Zm19.717-8.114a4.716,4.716,0,0,1-2.442-2.879,5.591,5.591,0,0,1,.348-3.926,5,5,0,0,1,6.544-2.355,4.778,4.778,0,0,1,2.529,2.966,5.158,5.158,0,0,1-.348,3.926,4.852,4.852,0,0,1-2.879,2.529,5.059,5.059,0,0,1-1.6.272A4.766,4.766,0,0,1,45.314,117.993ZM89.081,88.413,76.673,91.351,81.734,80a19.911,19.911,0,0,1,2.612-20.98l-2.694,5.552c-1.143,2.449-1.551,4.653-.98,6.612a7.5,7.5,0,0,0,6.938,5.224,6.787,6.787,0,0,0,2.94-.735l-.98,1.959,4.571,2.2,8.571-17.387-4.653-2.286-3.918,8c-.735,1.306-1.224,2.286-1.633,2.857A6.6,6.6,0,0,1,91.2,72.33a5.278,5.278,0,0,1-2.369.9,4.418,4.418,0,0,1-2.449-.49A3.8,3.8,0,0,1,84.1,69.882a7.993,7.993,0,0,1,1.061-4.734L89.653,56l-1.388-.735a19.95,19.95,0,0,1,31.346,18.776c-.082-.245-.163-.571-.245-.816a9.6,9.6,0,0,0-5.224-5.8,8.943,8.943,0,0,0-3.511-.9,9.2,9.2,0,0,0-3.592.571l1.061-2.122-3.183-1.551-11.265,23.1,3.1,1.551,3.755-7.756a10.685,10.685,0,0,0,1.877,3.265,8.16,8.16,0,0,0,2.939,2.287,10.856,10.856,0,0,0,3.918,1.061,9.278,9.278,0,0,0,3.837-.653c.163,0,.246-.082.408-.163a19.772,19.772,0,0,1-13.65,5.421A20,20,0,0,1,89.081,88.413ZM107.53,80.82a4.418,4.418,0,0,1-2.286-2.694,5.235,5.235,0,0,1,.327-3.673,4.68,4.68,0,0,1,6.122-2.2,4.467,4.467,0,0,1,2.367,2.775,4.821,4.821,0,0,1-.325,3.673,4.552,4.552,0,0,1-2.7,2.367,4.7,4.7,0,0,1-1.494.254A4.451,4.451,0,0,1,107.53,80.82ZM0,52.436A19.744,19.744,0,1,1,19.744,72.179,19.729,19.729,0,0,1,0,52.436Zm6.36,0A13.384,13.384,0,1,0,19.744,39.052,13.368,13.368,0,0,0,6.36,52.436ZM128.829,50.2a9.377,9.377,0,0,0,5.179,1.544,9.924,9.924,0,0,1-5.179-1.544,9.406,9.406,0,0,1,13.265-13.265,9.246,9.246,0,0,1,3.362,7.268,9.441,9.441,0,0,1-9.448,9.448A9.276,9.276,0,0,1,128.829,50.2Zm5.179,1.544a9.577,9.577,0,0,0,9.629-9.629A9.693,9.693,0,0,1,134.009,51.744ZM128.829,45.2a4.27,4.27,0,1,0,4.271-4.269A4.267,4.267,0,0,0,128.829,45.2Zm7-5.723a2.726,2.726,0,1,0,2.725-2.725A2.732,2.732,0,0,0,135.825,39.479ZM54.278,18.425A18.424,18.424,0,1,1,72.7,36.848,18.408,18.408,0,0,1,54.278,18.425Zm7.077,0A11.347,11.347,0,1,0,72.7,7.077,11.326,11.326,0,0,0,61.356,18.425Zm4.514,6.221a6.316,6.316,0,0,1,8.907-8.907,6.206,6.206,0,0,1,2.257,4.881,6.338,6.338,0,0,1-6.344,6.344A6.227,6.227,0,0,1,65.87,24.646Zm3.477,1.038a6.65,6.65,0,0,1-3.477-1.038A6.292,6.292,0,0,0,69.347,25.684Zm0,0a6.432,6.432,0,0,0,6.468-6.468A6.511,6.511,0,0,1,69.347,25.684ZM65.87,21.291a2.867,2.867,0,1,0,2.868-2.868A2.864,2.864,0,0,0,65.87,21.291Zm4.7-3.843a1.831,1.831,0,1,0,1.83-1.831A1.835,1.835,0,0,0,70.567,17.448Z" transform="translate(-15.759 -20.618)"/>
    </g>
    <g id="蒙版组_155" data-name="蒙版组 155" class="cls-4" transform="translate(1775 -1889)">
      <g id="组_2313" data-name="组 2313" transform="translate(1.581 2.617)">
        <g id="组_858" data-name="组 858" transform="translate(37.349 110.941)">
          <path id="路径_347" data-name="路径 347" class="cls-5" d="M113.372,358.039s-.739,3.294-2.017.538C110.112,355.787,114.481,357.1,113.372,358.039Z" transform="translate(-111.131 -347.889)"/>
          <path id="路径_348" data-name="路径 348" class="cls-5" d="M122.244,354.859s1.344,3.361-1.445,1.68C117.976,354.825,122.647,353.346,122.244,354.859Z" transform="translate(-116.944 -346.12)"/>
          <path id="路径_349" data-name="路径 349" class="cls-5" d="M129.34,346.852s3.327,2.319-.336,2.453C125.341,349.474,128.769,345.205,129.34,346.852Z" transform="translate(-121.89 -340.97)"/>
          <path id="路径_350" data-name="路径 350" class="cls-5" d="M129.3,339.261s2.991,1.58-.034,2.084C126.237,341.815,128.657,337.951,129.3,339.261Z" transform="translate(-122.181 -336.001)"/>
          <path id="路径_351" data-name="路径 351" class="cls-5" d="M124.328,330.2s3.294-.706,1.311,1.613C123.623,334.133,123.018,329.6,124.328,330.2Z" transform="translate(-119.432 -330.099)"/>
        </g>
        <path id="路径_352" data-name="路径 352" class="cls-6" d="M292.2,179.3" transform="translate(-193.996 -119.04)"/>
        <path id="路径_353" data-name="路径 353" class="cls-6" d="M283.1,146.6" transform="translate(-187.954 -97.33)"/>
        <g id="组_863" data-name="组 863" transform="translate(85.639 68.534)">
          <g id="组_860" data-name="组 860">
            <path id="路径_354" data-name="路径 354" class="cls-7" d="M255.5,243.074s18.048,2.285,22.114-18.72c4.067-20.972,16.569-21.173,23.055-18.317s7.562,11.091.773,9.41c-6.755-1.68-11.259,1.512-13.544,6.722-1.613,3.663-5.411,21.677-13.981,24.131C265.348,248.72,254.627,267.339,255.5,243.074Z" transform="translate(-255.237 -204.464)"/>
            <g id="组_859" data-name="组 859">
              <path id="路径_355" data-name="路径 355" d="M255.079,242.73a20.046,20.046,0,0,0,17.779-7.831c4.6-6.184,4.369-14.116,7.7-20.871,2.42-4.907,6.554-9.007,12.2-9.545,4.739-.471,11.158,1.512,12.536,6.621.336,1.277.235,2.857-1.076,3.529-1.68.874-3.865-.2-5.613-.336a10.68,10.68,0,0,0-8.469,3.025c-3.529,3.563-4.3,9.074-5.949,13.611-1.949,5.377-4.739,12.6-10.687,14.62-4.638,1.58-7.9,5.377-11.965,7.932-1.479.908-3.562,1.949-4.84.2a8.552,8.552,0,0,1-1.21-3.932,46.76,46.76,0,0,1-.2-7.192c0-.235-.37-.3-.37-.034-.1,3.294-.37,7.125.874,10.251.5,1.277,1.412,2.353,2.857,2.252,1.647-.067,3.193-1.244,4.47-2.185,1.983-1.445,3.865-3.058,5.848-4.5a20.6,20.6,0,0,1,3.193-1.916,28.983,28.983,0,0,0,3.193-1.311,16.018,16.018,0,0,0,5.646-6.318c2.924-5.108,4.336-10.755,6.285-16.267a11.7,11.7,0,0,1,6.991-7.461,12.672,12.672,0,0,1,6.722-.067,4.676,4.676,0,0,0,3.563-.269c1.848-1.176,1.311-3.731.437-5.344a10.512,10.512,0,0,0-6.218-4.739,14.425,14.425,0,0,0-11.931,1.277c-5.713,3.5-8.3,10.419-9.646,16.67-1.512,7.058-4.268,13.847-10.99,17.376a20.579,20.579,0,0,1-10.553,2.319c-.2,0-.4-.034-.605-.034C254.843,242.327,254.81,242.7,255.079,242.73Z" transform="translate(-254.815 -203.918)"/>
            </g>
          </g>
          <path id="路径_356" data-name="路径 356" class="cls-8" d="M338.038,226.49s-4.84-2.89-8.57-2.89-6.419,1.848-8.7,4.134-5.848,18.619-8.032,20.8c-2.185,2.218-3.865,7.024-6.823,7.024-.975,0-.437,1.277.807,2.89a12.206,12.206,0,0,1,1.177-.471c6.755-2.386,9.679-12.738,11.628-18.72,1.479-4.537,2.588-8.839,7.159-11.326,3.126-1.714,8.772,1.21,11.561-.84C338.1,226.726,338.038,226.49,338.038,226.49Z" transform="translate(-288.403 -216.985)"/>
          <path id="路径_357" data-name="路径 357" class="cls-9" d="M287.781,235.721c-1.042-1.143-.975-1.916-.672-3.361.034-.235.034-.134-.1-.235a18.834,18.834,0,0,1-4.941,6.722c.37,1.546,1.143,1.949,2.185,2.924,1.277,1.176,3.058,1.21,4.3,1.613.739.235.5.37,1.244.6a26.569,26.569,0,0,0,5.041-7.293C292.352,236.191,289.9,238.04,287.781,235.721Zm24.467-30.18-.1.4c-2.891,3.159-2.924,5.613-1.244,9.074,2.689.336,5.478,1.58,6.554.168C320.281,211.388,316.08,207.288,312.248,205.54Zm-32.331,37.272a3.055,3.055,0,0,1-.739-2.252,21.676,21.676,0,0,1-5.377,2.252,8,8,0,0,0,2.621,6.083c1.143,1.076,1.344,1.344,2.554,1.647a30.966,30.966,0,0,1,7.394-4.268,14.783,14.783,0,0,0,3.025-1.68c-.2-.235-.3.269-.605.1C286,242.98,282.4,245.534,279.917,242.812Zm24.837-32.768a12.727,12.727,0,0,1,1.68-5.344c-3.562.067-6.823,1.849-9.511,4.2-1.647,4.974-.437,7.9,4.974,10.251a11.421,11.421,0,0,1,3.529-2.958,7.9,7.9,0,0,1,2.252-.773C305.93,213.539,304.653,213.169,304.753,210.044Zm-11.9,13.107a11.207,11.207,0,0,1-1.176-4.47c0-.034,0-.067-.034-.067,0-.034-.034-.1-.034-.134v-.034c-.1-.269-.034.269-.336.37.437.269.168-.269.1-.235-.034,0,.134-.336.1-.336-.672,2.05-1.008,3.73-1.58,5.814a3.74,3.74,0,0,1-.235,1.109c-.4,1.848-1.244,2.185-.672,4.033.874,2.89,5.109,3.058,7.9,2.621.235-1.277,1.008-2.89,1.412-4.268.807-2.823.5-2.084.907-3.193-1.008.067-1.512.6-2.487.807A3.565,3.565,0,0,1,292.856,223.151Z" transform="translate(-267.419 -204.437)"/>
          <g id="组_862" data-name="组 862">
            <g id="组_861" data-name="组 861">
              <path id="路径_358" data-name="路径 358" d="M255.079,242.73a20.046,20.046,0,0,0,17.779-7.831c4.6-6.184,4.369-14.116,7.7-20.871,2.42-4.907,6.554-9.007,12.2-9.545,4.739-.471,11.158,1.512,12.536,6.621.336,1.277.235,2.857-1.076,3.529-1.68.874-3.865-.2-5.613-.336a10.68,10.68,0,0,0-8.469,3.025c-3.529,3.563-4.3,9.074-5.949,13.611-1.949,5.377-4.739,12.6-10.687,14.62-4.638,1.58-7.9,5.377-11.965,7.932-1.479.908-3.562,1.949-4.84.2a8.552,8.552,0,0,1-1.21-3.932,46.76,46.76,0,0,1-.2-7.192c0-.235-.37-.3-.37-.034-.1,3.294-.37,7.125.874,10.251.5,1.277,1.412,2.353,2.857,2.252,1.647-.067,3.193-1.244,4.47-2.185,1.983-1.445,3.865-3.058,5.848-4.5a20.6,20.6,0,0,1,3.193-1.916,28.983,28.983,0,0,0,3.193-1.311,16.018,16.018,0,0,0,5.646-6.318c2.924-5.108,4.336-10.755,6.285-16.267a11.7,11.7,0,0,1,6.991-7.461,12.672,12.672,0,0,1,6.722-.067,4.676,4.676,0,0,0,3.563-.269c1.848-1.176,1.311-3.731.437-5.344a10.512,10.512,0,0,0-6.218-4.739,14.425,14.425,0,0,0-11.931,1.277c-5.713,3.5-8.3,10.419-9.646,16.67-1.512,7.058-4.268,13.847-10.99,17.376a20.579,20.579,0,0,1-10.553,2.319c-.2,0-.4-.034-.605-.034C254.843,242.327,254.81,242.7,255.079,242.73Z" transform="translate(-254.815 -203.918)"/>
            </g>
          </g>
        </g>
        <g id="组_865" data-name="组 865" transform="translate(27.279 60.079)">
          <path id="路径_359" data-name="路径 359" class="cls-7" d="M132.656,198.558s3.865,6.856,10.049.672,13.41-6.016,14.721-14.082c0,0-.672-5.848,5.882-5.848,6.52,0,8.369,5.68,5.176,8.873s-8.6,18.115-30.819,26.786c0,0,2.521,9.041,2.521,15.561s3.193,6.856,6.688,3.361c3.5-3.529,12.738,2.689,10.889,10.217a16.552,16.552,0,0,1-8.368,10.385s5.713-1.109,11.057-2.017c6.016-1.008,7.7,2.017,7.7,2.017s13.746,12.4-19.09,7.024c0,0-18.922-.168-12.738-6.352,0,0-14.384,7.36-24.77-3.025,0,0,5.008,6.688,0,6.688-5.041,0-27.458,4.033-27.458-2.353,0-6.352,11.057-5.008,11.057-5.008s-.672-15.393,11.057-11.057c0,0-2.689-16.4,2.353-21.442,0,0-20.434,3.5-11.729,12.2,4.739,4.739-2.252,9.444-5.209,8.066-6.89-3.193-13.343-12.133-8.57-20.5s23.627-4.067,25.845-9.814C111.112,203.2,130.068,195.97,132.656,198.558Z" transform="translate(-81.324 -179.119)"/>
          <g id="组_864" data-name="组 864">
            <path id="路径_360" data-name="路径 360" d="M132.329,198.3a6.8,6.8,0,0,0,3.9,3.193c3.764,1.042,6.352-2.655,8.973-4.638,3.025-2.285,6.856-3.663,9.545-6.419a10.137,10.137,0,0,0,2.756-6.554c.269-3.831,3.831-5.243,7.293-4.638,4.335.739,6.352,5.075,3.361,8.469-2.722,3.092-4.6,6.923-7.259,10.116A57.174,57.174,0,0,1,137.438,214.4c-.067.034-.134.134-.1.2a73.652,73.652,0,0,1,2.218,11.158c.3,2.521-.034,5.277.672,7.73a3.025,3.025,0,0,0,2.285,2.42c1.479.2,2.89-.908,3.9-1.815a4.584,4.584,0,0,1,5.377-.874,9.455,9.455,0,0,1,5.075,12.334,15.943,15.943,0,0,1-7.663,8.368.2.2,0,0,0,.1.37c3.932-.773,7.932-1.714,11.9-2.117,2.588-.269,5.041.235,6.688,2.05a11.05,11.05,0,0,1,2.521,3.462c1.243,3.294-2.655,4.2-5.142,4.47-6.15.639-12.166-.975-18.283-1.277-2.689-.134-15.46-.975-10.654-5.949.134-.134,0-.437-.2-.336-7.932,4.033-18.081,3.361-24.534-2.958a.192.192,0,0,0-.3.235,14.25,14.25,0,0,1,1.815,3.193c.3.84.739,2.117-.1,2.789-.639.538-1.647.4-2.42.437-3.428.168-6.856.672-10.284.941-3.932.3-8.066.639-12-.1-1.243-.235-2.89-.605-3.7-1.714-1.109-1.512-.034-3.7,1.277-4.638,2.453-1.781,6.218-1.815,9.142-1.479a.188.188,0,0,0,.2-.168,17.825,17.825,0,0,1,.907-6.52,7.769,7.769,0,0,1,2.924-4.2c2.117-1.378,4.705-.941,6.957-.168a.215.215,0,0,0,.269-.2,59.044,59.044,0,0,1-.706-8.4c-.067-4.1-.067-9.646,2.991-12.839a.2.2,0,0,0-.168-.336c-4.235.739-9.713,2.05-12.738,5.31-1.848,2.016-1.479,4.436.2,6.453.84,1.008,1.916,1.882,2.185,3.26a4.055,4.055,0,0,1-1.445,3.8,6.487,6.487,0,0,1-3.193,1.647c-1.445.235-2.588-.47-3.8-1.243-5.277-3.361-9.444-9.78-7.73-16.2,1.311-4.94,5.277-6.957,9.915-7.965,3.966-.84,8.066-.941,12.065-1.781a9.692,9.692,0,0,0,3.8-1.445c1.008-.739,1.243-1.748,1.949-2.722,2.621-3.63,7.7-5.814,11.729-7.394a35.993,35.993,0,0,1,6.722-2.017c1.243-.235,3.361-.706,4.436.235.2.168.4-.168.235-.3a3.83,3.83,0,0,0-2.857-.538,25.634,25.634,0,0,0-5.68,1.243,41.584,41.584,0,0,0-11.965,5.814,11.331,11.331,0,0,0-3.394,3.529,5.258,5.258,0,0,1-3.294,2.789c-4.033,1.378-8.537,1.277-12.7,2.05-3.63.672-7.764,1.815-9.881,5.142-3.092,4.907-1.916,10.956,1.479,15.359,2.521,3.26,7.024,7.6,11.292,5.041a5.182,5.182,0,0,0,2.79-4.3c-.034-2.353-2.151-3.5-3.159-5.377-3.462-6.318,9.074-9.242,13.141-9.948-.067-.1-.1-.235-.168-.336-2.857,2.991-3.092,7.932-3.126,11.8-.034,2.05.1,4.1.269,6.15.067.739.134,1.479.235,2.185.034.235.3,1.109.168,1.344-.067.1-.168-.168-.5-.37a4.658,4.658,0,0,0-1.176-.3,8.38,8.38,0,0,0-2.89-.134,6.1,6.1,0,0,0-3.7,1.983c-1.882,2.117-2.521,5.176-2.722,7.932-.034.471.168,1.613-.067,2.017.2-.336-.034-.2-.538-.235-.706-.034-1.412-.067-2.117-.034-2.958.067-7.293.672-8.234,4.033-1.916,6.89,12.939,5.041,16.233,4.806,2.386-.168,4.739-.437,7.091-.672a42.432,42.432,0,0,0,5.075-.4c3.327-.773.37-5.411-.739-6.923-.1.067-.2.168-.3.235,6.621,6.453,16.905,7.159,25,3.058a2.948,2.948,0,0,1-.2-.336c-4.336,4.5,3.966,5.915,6.991,6.318,1.916.235,3.865.235,5.781.4,4.638.4,9.142,1.378,13.847,1.344,2.42-.034,8.469-.067,8.335-3.831-.067-1.916-1.546-3.428-2.756-4.739a7.148,7.148,0,0,0-3.764-2.252c-2.991-.6-6.184.336-9.142.874-2.084.37-4.134.773-6.184,1.176.034.134.067.235.1.37a16.261,16.261,0,0,0,8.469-10.486,9.763,9.763,0,0,0-7.159-11.326,4.636,4.636,0,0,0-2.621.067c-1.176.4-1.916,1.445-2.924,2.151-1.176.807-2.79,1.412-3.831.067-1.176-1.479-.975-3.831-1.042-5.545a63.318,63.318,0,0,0-1.58-10.956,20.622,20.622,0,0,1-.773-3.159c0-.1-.134-.3-.1-.37.134-.437-.773.773.4-.134a19.084,19.084,0,0,1,3.159-1.378,56.485,56.485,0,0,0,16.939-11.8,69.46,69.46,0,0,0,8.167-10.654c1.748-2.689,4.873-5.277,3.058-8.772-2.084-4-9.612-4.638-11.8-.437-.807,1.58-.5,3.361-1.042,5.008-1.277,3.831-4.772,5.68-8.032,7.6a33.524,33.524,0,0,0-4.672,3.159c-1.781,1.479-3.361,3.563-5.814,3.9a5.782,5.782,0,0,1-5.478-3.092C132.565,197.9,132.195,198.065,132.329,198.3Z" transform="translate(-81.166 -178.761)"/>
          </g>
        </g>
        <path id="路径_361" data-name="路径 361" class="cls-8" d="M267.851,357.62a15.067,15.067,0,0,0,4.705-10.284c.067-3.394-2.42-6.856-5.613-8.436,0,.2-.034.4-.034.638,0,0,.807,12.939-9.209,18.417s.874,4.4,5.646,2.185A43.8,43.8,0,0,0,267.851,357.62Z" transform="translate(-168.37 -225.001)"/>
        <path id="路径_362" data-name="路径 362" class="cls-8" d="M161.864,387.336s-.471-9.276-4.974-4.773,6.318,4.941,2.252,9.915a4.6,4.6,0,0,0-.5.706c.5-.067,1.042-.134,1.546-.168,3.159-.37,2.957-2.722,1.949-4.94l.3.2C162.066,387.705,161.864,387.336,161.864,387.336Z" transform="translate(-103.419 -253.17)"/>
        <path id="路径_363" data-name="路径 363" class="cls-8" d="M110.145,302.8c-3.092,3.966,3.226,11.528,5.176,13.477.975.975,1.109-1.176,1.512-1.68.067-.907-1.546-2.89-2.151-3.63-4.369-5.243-.874-8.335,4.4-10.251.168-.067.336-.1.5-.168.6-.739,1.378-.034,2.285-.84C121.874,299.78,113.4,298.637,110.145,302.8Z" transform="translate(-72.571 -198.921)"/>
        <path id="路径_364" data-name="路径 364" class="cls-8" d="M241.4,235.93c.2-.269.5.067.773-.2-2.386.336-2.89-4.907-3.025-6.789a77.281,77.281,0,0,0-2.218-13.242c-.37-1.445,2.756-1.781,4.134-2.42a60.082,60.082,0,0,0,6.722-3.764,54.192,54.192,0,0,0,9.814-8.133c3.226-3.327,17.308-18.653,8.066-22.081a2.163,2.163,0,0,0-.1.672s-4.739,14.384-13.78,20.7-18.048,8.066-18.552,10.318c-.47,2.218,7.159,18.384.1,26.786C227.851,244.332,230.708,249.811,241.4,235.93Z" transform="translate(-153.106 -119.04)"/>
        <path id="路径_365" data-name="路径 365" class="cls-9" d="M180.687,344.542c0,.034-.034.067-.034.135q-1.361,1.865-2.823,3.63c-1.21,1.479-3.966,5.512-6.184,5.445-.6,0-.907.907-.235,1.076a.2.2,0,0,1,.134.034h.034c2.689.605,5.646-.538,7.9-1.916a19.029,19.029,0,0,0,1.882-1.344,12.884,12.884,0,0,0,.437-3.025A8.179,8.179,0,0,0,180.687,344.542Zm-1.882-2.487a9.3,9.3,0,0,0-5.377-2.655c-.1.538-.2,1.042-.3,1.445-.807,1.58-1.714,3.126-2.655,4.638-1.008,1.647-2.857,5.377-5.008,5.68a.563.563,0,0,0,.034,1.109c2.521.235,5.008-1.075,6.957-2.487A22.441,22.441,0,0,0,178.8,342.055Zm-47.489,8.133c-2.05.672-5.512-2.05-7.125-3.025l-.6-.4a7.34,7.34,0,0,0-2.218,1.815,8.031,8.031,0,0,0-1.143,1.949,19.053,19.053,0,0,0,3.73,1.344c2.42.639,5.646.672,7.831-.672A.556.556,0,0,0,131.316,350.189Zm-4.268,4.974c-1.949.941-5.579-1.076-7.394-1.849a1.639,1.639,0,0,0-.235-.1c-.134.739-.269,1.479-.336,2.151-.1.706-.1,1.445-.134,2.184-.571-.034-1.143-.067-1.748-.067h0a20.306,20.306,0,0,0,2.487.47c2.554.336,5.881-.1,7.932-1.848A.555.555,0,0,0,127.047,355.162Z" transform="translate(-77.811 -225.333)"/>
        <g id="组_867" data-name="组 867" transform="translate(27.54 60.079)">
          <g id="组_866" data-name="组 866">
            <path id="路径_366" data-name="路径 366" d="M132.846,198.3a6.8,6.8,0,0,0,3.9,3.193c3.764,1.042,6.352-2.655,8.973-4.638,3.025-2.285,6.856-3.663,9.545-6.419a10.136,10.136,0,0,0,2.756-6.554c.269-3.831,3.831-5.243,7.293-4.638,4.335.739,6.352,5.075,3.361,8.469-2.722,3.092-4.6,6.923-7.259,10.116A57.173,57.173,0,0,1,137.955,214.4c-.067.034-.134.134-.1.2a73.655,73.655,0,0,1,2.218,11.158c.3,2.521-.034,5.277.672,7.73a3.025,3.025,0,0,0,2.285,2.42c1.479.2,2.89-.908,3.9-1.815a4.584,4.584,0,0,1,5.377-.874,9.455,9.455,0,0,1,5.075,12.334,15.943,15.943,0,0,1-7.663,8.368.2.2,0,0,0,.1.37c3.932-.773,7.932-1.714,11.9-2.117,2.588-.269,5.041.235,6.688,2.05a11.05,11.05,0,0,1,2.521,3.462c1.243,3.294-2.655,4.2-5.142,4.47-6.15.639-12.166-.975-18.283-1.277-2.689-.134-15.46-.975-10.654-5.949.134-.134,0-.437-.2-.336-7.932,4.033-18.081,3.361-24.534-2.958a.192.192,0,0,0-.3.235,14.252,14.252,0,0,1,1.815,3.193c.3.84.739,2.117-.1,2.789-.639.538-1.647.4-2.42.437-3.428.168-6.856.672-10.284.941-3.932.3-8.066.639-12-.1-1.243-.235-2.89-.605-3.7-1.714-1.109-1.512-.034-3.7,1.277-4.638,2.453-1.781,6.218-1.815,9.141-1.479a.188.188,0,0,0,.2-.168,17.825,17.825,0,0,1,.907-6.52,7.768,7.768,0,0,1,2.924-4.2c2.117-1.378,4.705-.941,6.957-.168a.215.215,0,0,0,.269-.2,59.038,59.038,0,0,1-.706-8.4c-.067-4.1-.067-9.646,2.991-12.839a.2.2,0,0,0-.168-.336c-4.268.706-9.982,1.983-13.006,5.344-1.882,2.084-1.244,4.537.5,6.52,1.008,1.109,2.117,2.185,2.252,3.764a4.332,4.332,0,0,1-2.689,4.167c-2.521,1.176-4.974.336-6.991-1.311-4.1-3.294-7.159-8.973-6.587-14.317.571-5.31,4.436-7.932,9.276-9.041,4.067-.941,8.268-.975,12.334-1.781a11.372,11.372,0,0,0,3.932-1.344c1.143-.739,1.378-1.815,2.117-2.857,2.588-3.6,7.562-5.747,11.561-7.327a37.864,37.864,0,0,1,6.89-2.084c1.243-.235,3.361-.706,4.436.235.2.168.4-.168.235-.3a3.83,3.83,0,0,0-2.857-.538,25.621,25.621,0,0,0-5.68,1.243,41.743,41.743,0,0,0-12.1,5.915,11.168,11.168,0,0,0-3.294,3.462,5.393,5.393,0,0,1-3.63,2.857c-4.2,1.244-8.7,1.109-12.973,1.949-3.7.739-7.629,2.084-9.478,5.646-2.42,4.705-.975,10.284,1.815,14.485,2.151,3.227,5.882,7.091,10.183,5.848A5.068,5.068,0,0,0,99,234.9c.269-2.655-2.05-3.966-3.26-5.982-3.9-6.419,9.074-9.343,13.174-10.015-.067-.1-.1-.235-.168-.336-2.857,2.991-3.092,7.932-3.126,11.8-.034,2.05.1,4.1.269,6.15.067.739.134,1.479.235,2.185.034.235.3,1.109.168,1.344-.067.1-.168-.168-.5-.37a4.658,4.658,0,0,0-1.176-.3,8.38,8.38,0,0,0-2.89-.134,6.1,6.1,0,0,0-3.7,1.983c-1.882,2.117-2.521,5.176-2.722,7.932-.034.471.168,1.613-.067,2.017.2-.336-.034-.2-.538-.235-.706-.034-1.412-.067-2.117-.034-2.958.067-7.293.672-8.234,4.033-1.916,6.89,12.939,5.041,16.233,4.806,2.386-.168,4.739-.437,7.091-.672a42.433,42.433,0,0,0,5.075-.4c3.327-.773.37-5.411-.739-6.923-.1.067-.2.168-.3.235,6.621,6.453,16.905,7.159,25,3.058a2.948,2.948,0,0,1-.2-.336c-4.335,4.5,3.966,5.915,6.991,6.318,1.916.235,3.865.235,5.781.4,4.638.4,9.141,1.378,13.847,1.344,2.42-.034,8.469-.067,8.335-3.831-.067-1.916-1.546-3.428-2.756-4.739a7.149,7.149,0,0,0-3.764-2.252c-2.991-.6-6.184.336-9.141.874-2.084.37-4.134.773-6.184,1.176.034.134.067.235.1.37a16.261,16.261,0,0,0,8.469-10.486,9.763,9.763,0,0,0-7.159-11.326,4.636,4.636,0,0,0-2.621.067c-1.176.4-1.916,1.445-2.924,2.151-1.176.807-2.79,1.412-3.831.067-1.176-1.479-.975-3.831-1.042-5.545a63.311,63.311,0,0,0-1.58-10.956,20.624,20.624,0,0,1-.773-3.159c0-.1-.134-.3-.1-.37.134-.437-.773.773.4-.134a19.088,19.088,0,0,1,3.159-1.378,56.485,56.485,0,0,0,16.939-11.8,69.461,69.461,0,0,0,8.167-10.654c1.748-2.689,4.873-5.277,3.058-8.772-2.084-4-9.612-4.638-11.8-.437-.807,1.58-.5,3.361-1.042,5.008-1.277,3.831-4.772,5.68-8.032,7.6a33.522,33.522,0,0,0-4.672,3.159c-1.781,1.479-3.361,3.563-5.814,3.9a5.783,5.783,0,0,1-5.478-3.092C133.082,197.9,132.712,198.065,132.846,198.3Z" transform="translate(-81.944 -178.761)"/>
          </g>
        </g>
        <path id="路径_367" data-name="路径 367" class="cls-10" d="M193.565,290.917c.2,8.268-4.5,15.09-10.486,15.258-5.982.134-10.99-6.453-11.192-14.721s4.5-15.09,10.486-15.258C188.356,276.062,193.364,282.649,193.565,290.917Z" transform="translate(-114.115 -183.369)"/>
        <g id="组_869" data-name="组 869" transform="translate(13.991 18.655)">
          <path id="路径_368" data-name="路径 368" class="cls-7" d="M112.311,71.042c5.041-8.133-.235-16.5-7.226-14.855A7.928,7.928,0,0,0,99,63.312l-1.815.437c-3.462-.5-7.864-2.487-20,.37l-2.991.874c-13.275,3.126-14.821,6.184-17.51,7.932h0s-11.629-8.436-13.679.235,2.857,12.334,2.857,12.334h0c-2.924,5.747-2.89,10.856-1.277,17.644l1.68,7.159A28.317,28.317,0,0,0,80.35,131.4l20.8-4.873A28.3,28.3,0,0,0,122.26,92.45l-1.68-7.159a28.334,28.334,0,0,0-8.268-14.25Z" transform="translate(-42.214 -55.819)"/>
          <g id="组_868" data-name="组 868">
            <path id="路径_369" data-name="路径 369" d="M111.894,70.83c2.588-4.336,3.126-10.688-1.412-13.981-3.663-2.655-9.074-1.176-11.225,2.722a8.348,8.348,0,0,0-.807,2.084c-.067.3-.034,1.008-.235,1.244.134-.2-1.311.269-1.68.269a11.751,11.751,0,0,1-2.117-.4A36.527,36.527,0,0,0,80.772,62.7a68.974,68.974,0,0,0-7.024,1.68A89.6,89.6,0,0,0,64.876,67a32.552,32.552,0,0,0-8.133,4.84,4.471,4.471,0,0,1-.639.47c-.235.134.5.2.134.1-.2-.067-.5-.37-.706-.471A27.136,27.136,0,0,0,51.4,69.72c-2.958-1.243-7.024-1.916-8.671,1.58a13.023,13.023,0,0,0,1.344,12.838c.235.3.807.672.941,1.008.168.37-.975,2.319-1.21,2.991a21.713,21.713,0,0,0-.941,9.175,93.8,93.8,0,0,0,2.588,12.5,28.721,28.721,0,0,0,7.663,13.847,29.1,29.1,0,0,0,27.458,7.427c6.587-1.546,13.175-3.058,19.728-4.638a28.919,28.919,0,0,0,21.442-20.7,29.9,29.9,0,0,0-.067-14.62c-1.042-4.4-1.848-8.906-3.966-12.973a29.118,29.118,0,0,0-2.285-3.663c-.571-.773-2.588-3.865-3.63-3.63.235-.067.168-.437-.067-.37h0c-.134.034-.235.2-.1.3,4.672,4.436,7.192,9.847,8.671,16.031,1.075,4.537,2.252,8.973,1.949,13.679a28.547,28.547,0,0,1-21.812,25.542c-6.554,1.58-13.107,3.092-19.695,4.6-10.923,2.554-22.282-.706-29.407-9.612-3.8-4.6-5.243-9.982-6.554-15.628a71.661,71.661,0,0,1-1.512-7.562,22.072,22.072,0,0,1,2.185-12.6.223.223,0,0,0-.067-.235,8.579,8.579,0,0,1-2.655-4.167,13.119,13.119,0,0,1-.5-5.814c.2-1.781.571-3.966,2.084-5.142,2.151-1.647,5.31-.538,7.495.437A31.1,31.1,0,0,1,54.76,71.9c.3.2.6.4.907.571.269.168.235.3.235.067a.189.189,0,0,0,.3.168c1.445-.975,2.689-2.185,4.167-3.092a38.33,38.33,0,0,1,10.217-4.033c6.991-1.882,14.149-3.9,21.476-2.857,1.176.168,2.319.437,3.462.639a6.2,6.2,0,0,0,2.924-.235c.067-.034.168-.1.168-.168a7.713,7.713,0,0,1,7.965-7.125,7.257,7.257,0,0,1,6.251,4.571c1.412,3.394.571,7.091-1.243,10.15C111.423,70.83,111.76,71.031,111.894,70.83Z" transform="translate(-41.628 -55.506)"/>
          </g>
        </g>
        <path id="路径_370" data-name="路径 370" class="cls-8" d="M185.785,112.763c-1.916,1.848-2.42,4.6-4.1,6.654a12.78,12.78,0,0,0-3.159,8c1.714-.437,3.394-.907,5.075-1.479a29.417,29.417,0,0,0,16.871-15.964c2.857-6.386,2.554-13.141,1.008-19.762-1.748-7.394-4.5-13.981-10.049-19.459,2.151-3.865,1.815-8.4.975-11.83-.706-2.857-4.873-3.731-7.7-3.26-3.193.538-4.6,2.117-6.083,5.075a7.353,7.353,0,0,0-.471,1.68c-.1.4-.437.6-.437.706a11.572,11.572,0,0,1-3.529-.235c-3.092-.639-2.655-.672-5.781-.437-.034.034-3.294-.067-3.294-.034-2.252.538-3.7.571-3.394.639C168.04,64.434,180.139,72,183.4,77.037c4.6,7.125,4.4,14.116,6.654,22.316.874,3.159-.168,5.512-1.109,8.7A11.548,11.548,0,0,1,185.785,112.763Z" transform="translate(-107.343 -36.875)"/>
        <path id="路径_371" data-name="路径 371" class="cls-9" d="M45.4,173.9s5.277,9.31,10.587,6.251c0,0-5.579,8.234-8.906,3.831C47.08,183.983,46.039,182.974,45.4,173.9Z" transform="translate(-30.142 -115.455)"/>
        <path id="路径_372" data-name="路径 372" class="cls-9" d="M56.7,227.8s6.218,6.386,8.469,2.79c0,0,2.991,5.411-2.588,6.722A23.124,23.124,0,0,1,56.7,227.8Z" transform="translate(-37.644 -151.24)"/>
        <path id="路径_373" data-name="路径 373" class="cls-9" d="M248.157,114.3s-2.924,10.284-6.957,11.192c0,0,9.78,2.958,10.251-4.907A45.565,45.565,0,0,0,248.157,114.3Z" transform="translate(-160.136 -75.886)"/>
        <path id="路径_374" data-name="路径 374" class="cls-9" d="M259.289,169.5s-6.957,4.974-10.889,2.554c0,0,3.6,10.217,10.587,8.57C258.987,180.624,260.869,176.491,259.289,169.5Z" transform="translate(-164.916 -112.534)"/>
        <g id="组_871" data-name="组 871" transform="translate(13.991 18.655)">
          <g id="组_870" data-name="组 870">
            <path id="路径_375" data-name="路径 375" d="M111.894,70.83c2.588-4.336,3.126-10.688-1.412-13.981-3.663-2.655-9.074-1.176-11.225,2.722a8.348,8.348,0,0,0-.807,2.084c-.067.3-.034,1.008-.235,1.244.134-.2-1.311.269-1.68.269a11.751,11.751,0,0,1-2.117-.4A36.527,36.527,0,0,0,80.772,62.7a68.974,68.974,0,0,0-7.024,1.68A89.6,89.6,0,0,0,64.876,67a32.552,32.552,0,0,0-8.133,4.84,4.471,4.471,0,0,1-.639.47c-.235.134.5.2.134.1-.2-.067-.5-.37-.706-.471A27.136,27.136,0,0,0,51.4,69.72c-2.958-1.243-7.024-1.916-8.671,1.58a13.023,13.023,0,0,0,1.344,12.838c.235.3.807.672.941,1.008.168.37-.975,2.319-1.21,2.991a21.713,21.713,0,0,0-.941,9.175,93.8,93.8,0,0,0,2.588,12.5,28.721,28.721,0,0,0,7.663,13.847,29.1,29.1,0,0,0,27.458,7.427c6.587-1.546,13.175-3.058,19.728-4.638a28.919,28.919,0,0,0,21.442-20.7,29.9,29.9,0,0,0-.067-14.62c-1.042-4.4-1.848-8.906-3.966-12.973a29.118,29.118,0,0,0-2.285-3.663c-.571-.773-2.588-3.865-3.63-3.63.235-.067.168-.437-.067-.37h0c-.134.034-.235.2-.1.3,4.672,4.436,7.192,9.847,8.671,16.031,1.075,4.537,2.252,8.973,1.949,13.679a28.547,28.547,0,0,1-21.812,25.542c-6.554,1.58-13.107,3.092-19.695,4.6-10.923,2.554-22.282-.706-29.407-9.612-3.8-4.6-5.243-9.982-6.554-15.628a71.661,71.661,0,0,1-1.512-7.562,22.072,22.072,0,0,1,2.185-12.6.223.223,0,0,0-.067-.235,8.579,8.579,0,0,1-2.655-4.167,13.119,13.119,0,0,1-.5-5.814c.2-1.781.571-3.966,2.084-5.142,2.151-1.647,5.31-.538,7.495.437A31.1,31.1,0,0,1,54.76,71.9c.3.2.6.4.907.571.269.168.235.3.235.067a.189.189,0,0,0,.3.168c1.445-.975,2.689-2.185,4.167-3.092a38.33,38.33,0,0,1,10.217-4.033c6.991-1.882,14.149-3.9,21.476-2.857,1.176.168,2.319.437,3.462.639a6.2,6.2,0,0,0,2.924-.235c.067-.034.168-.1.168-.168a7.713,7.713,0,0,1,7.965-7.125,7.257,7.257,0,0,1,6.251,4.571c1.412,3.394.571,7.091-1.243,10.15C111.423,70.83,111.76,71.031,111.894,70.83Z" transform="translate(-41.628 -55.506)"/>
          </g>
        </g>
        <g id="组_873" data-name="组 873" transform="translate(30.447 61.145)">
          <path id="路径_376" data-name="路径 376" class="cls-10" d="M105.6,188.4a7.411,7.411,0,1,1-8.94-5.781A7.556,7.556,0,0,1,105.6,188.4Z" transform="translate(-90.839 -182.26)"/>
          <g id="组_872" data-name="组 872">
            <path id="路径_377" data-name="路径 377" d="M105.214,188.106a7.239,7.239,0,1,1-9.175-5.512c4.1-1.277,8.1,1.512,9.175,5.512.067.2.37.134.3-.067-1.075-4-4.94-6.89-9.142-5.915a7.839,7.839,0,1,0,9.142,5.915C105.483,187.838,105.147,187.9,105.214,188.106Z" transform="translate(-90.592 -181.934)"/>
          </g>
        </g>
        <path id="路径_378" data-name="路径 378" d="M95.9,171.511s8.436-2.722,10.688,3.932A14.287,14.287,0,0,0,96,174.133Z" transform="translate(-63.669 -113.503)"/>
        <path id="路径_379" data-name="路径 379" d="M188.772,142.5s-8.2,3.361-5.646,9.881a14.273,14.273,0,0,1,7.259-7.831Z" transform="translate(-121.253 -94.608)"/>
        <path id="路径_380" data-name="路径 380" d="M113.486,197.3c.538,2.353-.672,4.672-2.722,5.142a4.172,4.172,0,0,1-4.739-3.394,3.867,3.867,0,1,1,7.461-1.748Z" transform="translate(-70.299 -128.675)"/>
        <path id="路径_381" data-name="路径 381" class="cls-10" d="M119.926,202.629a.679.679,0,0,1-.47.874.722.722,0,0,1-.807-.571.679.679,0,0,1,.47-.874A.665.665,0,0,1,119.926,202.629Z" transform="translate(-78.756 -134.135)"/>
        <g id="组_875" data-name="组 875" transform="translate(61.276 54.445)">
          <path id="路径_382" data-name="路径 382" class="cls-10" d="M197.425,168.218a7.406,7.406,0,1,1-8.906-5.512A7.425,7.425,0,0,1,197.425,168.218Z" transform="translate(-182.645 -162.336)"/>
          <g id="组_874" data-name="组 874">
            <path id="路径_383" data-name="路径 383" d="M196.936,167.914a7.235,7.235,0,1,1-9.108-5.243,7.321,7.321,0,0,1,9.108,5.243c.067.2.37.134.3-.067a7.557,7.557,0,1,0-5.646,9.074,7.659,7.659,0,0,0,5.646-9.074C197.2,167.645,196.9,167.712,196.936,167.914Z" transform="translate(-182.324 -161.998)"/>
          </g>
        </g>
        <path id="路径_384" data-name="路径 384" d="M205.109,175.8c.538,2.353-.672,4.672-2.722,5.142a4.172,4.172,0,0,1-4.739-3.395c-.538-2.353.672-4.671,2.722-5.142C202.42,171.9,204.538,173.417,205.109,175.8Z" transform="translate(-131.137 -114.4)"/>
        <path id="路径_385" data-name="路径 385" class="cls-10" d="M204.926,182.129a.679.679,0,0,1-.47.874.722.722,0,0,1-.807-.571.679.679,0,0,1,.47-.874A.7.7,0,0,1,204.926,182.129Z" transform="translate(-135.188 -120.525)"/>
        <path id="路径_386" data-name="路径 386" class="cls-9" d="M108.616,100.429c-3.327,1.244-6.352,2.756-8.57,3.428-4.4,1.311-2.117-1.781-2.117-1.781,10.419-7.965,24.769-7.394,24.769-7.394,5.176-.235,3.462,4.705-3.7,3.966a15.4,15.4,0,0,0-3.731.067,2.087,2.087,0,0,0-.437,3.327h0a32.889,32.889,0,0,1,5.176-.37c3.7-.168,2.453,3.327-2.621,2.823a11.087,11.087,0,0,0-2.588.034c-.034.034-2.218,2.319,1.243,2.655h0a37.863,37.863,0,0,1,6.89-.571c4.268-.2,2.823,3.865-3.025,3.26s-11.931,3.193-15.527,4.268-1.748-1.479-1.748-1.479a27.594,27.594,0,0,1,8.268-4.235h0s1.613-2.185-1.176-2.554c-2.218.84-4.2,1.848-5.713,2.285-3.126.941-1.512-1.277-1.512-1.277a23.79,23.79,0,0,1,7.058-3.6h0C109.456,103.286,111.338,100.06,108.616,100.429Z" transform="translate(-64.623 -62.855)"/>
        <g id="组_877" data-name="组 877" transform="translate(16.276 35.356)">
          <path id="路径_387" data-name="路径 387" class="cls-11" d="M55.865,109.431s1.143-3.058-6.016-3.731c0,0-2.991,6.386,1.714,9.31Z" transform="translate(-48.749 -105.532)"/>
          <g id="组_876" data-name="组 876">
            <path id="路径_388" data-name="路径 388" d="M55.678,109.166c1.042-2.991-4.537-3.8-6.15-3.966a.185.185,0,0,0-.168.1c-1.479,3.26-1.412,7.36,1.781,9.511a.207.207,0,0,0,.235-.034c1.445-1.848,2.857-3.7,4.3-5.579.134-.168-.134-.336-.269-.168-1.109,1.412-2.218,2.857-3.294,4.268-.2.269-.5.907-.807,1.042-.336.168-.269.1-.672-.3a6.04,6.04,0,0,1-1.848-4.94,8.419,8.419,0,0,1,.672-3.126c.067-.1.1-.47.235-.571a15.017,15.017,0,0,1,1.512.3,10.572,10.572,0,0,1,1.479.37c1.109.37,3.294,1.378,2.756,2.958A.139.139,0,1,0,55.678,109.166Z" transform="translate(-48.429 -105.2)"/>
          </g>
        </g>
        <g id="组_879" data-name="组 879" transform="translate(75.752 21.832)">
          <path id="路径_389" data-name="路径 389" class="cls-12" d="M231.068,74.473s-4.907.2-4.974-3.092a7.316,7.316,0,0,1,2.487-5.882S237.79,69.667,231.068,74.473Z" transform="translate(-225.858 -65.318)"/>
          <g id="组_878" data-name="组 878">
            <path id="路径_390" data-name="路径 390" d="M230.64,73.946c-1.58.067-3.831-.3-4.6-1.882-.706-1.512-.034-3.731.773-5.075.235-.4.874-1.613,1.412-1.714-.235.034.706.471.907.571a11.788,11.788,0,0,1,1.983,1.412,4.8,4.8,0,0,1,1.781,2.857c.2,1.68-1.143,2.958-2.386,3.865a.155.155,0,1,0,.2.235c2.084-1.546,3.361-3.731,1.647-6.083a10.865,10.865,0,0,0-4.2-3.159c-.067-.034-.1,0-.168.034a7.105,7.105,0,0,0-2.42,6.755c.571,2.05,3.193,2.554,5.008,2.487C230.808,74.248,230.842,73.946,230.64,73.946Z" transform="translate(-225.396 -64.959)"/>
          </g>
        </g>
        <path id="路径_391" data-name="路径 391" class="cls-13" d="M182.837,216.6s6.318,7.461,5.243,11.427c-.571,2.084-3.5,5.949-13.78,5.949,0,0,.84.672,5.377.639s11.427-.067,13.141-6.218C195.137,219.793,188.113,217.1,182.837,216.6Z" transform="translate(-115.72 -143.804)"/>
        <path id="路径_392" data-name="路径 392" class="cls-14" d="M169.32,214.189c.1.4-.3.84-.907.975s-1.143-.067-1.243-.471.3-.84.907-.975C168.648,213.584,169.22,213.785,169.32,214.189Z" transform="translate(-110.976 -141.863)"/>
        <g id="组_880" data-name="组 880" transform="translate(107.547 63.722)">
          <path id="路径_393" data-name="路径 393" class="cls-10" d="M325.512,191.751c0,1.176-1.244,2.151-2.756,2.151S320,192.927,320,191.751s1.244-2.151,2.756-2.151C324.3,189.6,325.512,190.575,325.512,191.751Z" transform="translate(-320 -189.6)"/>
        </g>
        <path id="路径_394" data-name="路径 394" class="cls-5" d="M304.855,193.6s-2.521-3.5,1.21-2.353C309.762,192.389,304.822,195.448,304.855,193.6Z" transform="translate(-201.845 -126.819)"/>
        <path id="路径_395" data-name="路径 395" class="cls-15" d="M341.028,182.471s1.781-2.252,1.546.269S339.919,182.808,341.028,182.471Z" transform="translate(-226.222 -120.531)"/>
        <path id="路径_396" data-name="路径 396" class="cls-5" d="M313.739,176.43s1.042-4.2,2.554-.6C317.839,179.421,312.327,177.573,313.739,176.43Z" transform="translate(-208.141 -115.767)"/>
        <path id="路径_397" data-name="路径 397" class="cls-5" d="M323.265,173.642s1.344-4.672,2.622-.571C327.13,177.2,321.753,174.886,323.265,173.642Z" transform="translate(-214.441 -113.786)"/>
        <path id="路径_398" data-name="路径 398" class="cls-5" d="M334.026,176.377s1.176-3.932,2.185-.437C337.253,179.4,332.715,177.419,334.026,176.377Z" transform="translate(-221.606 -115.848)"/>
        <path id="路径_399" data-name="路径 399" d="M328.4,404.7a10.225,10.225,0,0,1,6.486,2.689V408.7C334.92,408.7,335.391,407.691,328.4,404.7Z" transform="translate(-218.03 -268.686)"/>
        <path id="路径_400" data-name="路径 400" d="M327.8,409.2a10.218,10.218,0,0,1,5.344,4.571l-.4,1.244S333.514,414.208,327.8,409.2Z" transform="translate(-217.631 -271.674)"/>
        <path id="路径_401" data-name="路径 401" class="cls-16" d="M201.665,327.485c-2.285-.773-8.2-7.663-10.385-10.083-6.419-7.159-9.511-19.19-7.764-28.8a12.324,12.324,0,0,0-3.966,2.857l-.605,1.412c-4.672,12.334-.672,30.987,8.974,41.708,1.042,1.176,5.68,7.461,6.789,8.335,1.647-1.412.235-6.923,1.412-10.116C196.859,330.913,201.463,328.157,201.665,327.485Z" transform="translate(-117.509 -191.606)"/>
        <path id="路径_402" data-name="路径 402" class="cls-17" d="M201.426,321.956c-2.285-.908-8.066-8-10.251-10.519-6.318-7.394-9.276-19.459-7.461-28.836a11.013,11.013,0,0,0-3.966,2.622c-.2.437-.4.908-.6,1.378-4.772,11.9-.941,30.55,8.536,41.674,1.042,1.21,5.579,7.663,6.655,8.6,1.647-1.311.3-6.822,1.512-9.881C196.62,325.048,201.224,322.594,201.426,321.956Z" transform="translate(-117.573 -187.622)"/>
        <path id="路径_403" data-name="路径 403" d="M95.736,398.8a8.9,8.9,0,0,0-5.949,2.689V402.8S89.351,401.791,95.736,398.8Z" transform="translate(-59.607 -264.77)"/>
        <path id="路径_404" data-name="路径 404" d="M98.473,403.3a9.446,9.446,0,0,0-4.873,4.571l1.412.168C95.012,408.072,93.264,408.308,98.473,403.3Z" transform="translate(-62.142 -267.757)"/>
        <g id="组_885" data-name="组 885" transform="translate(38.42 70.832)">
          <path id="路径_405" data-name="路径 405" class="cls-18" d="M160.609,254.5l-1.949,6.856s-7.831,3.428-8.167,3.226-6.318-1.848-6.755-2.117-4.537-1.412-4.638-1.815C139,260.216,160.138,252.419,160.609,254.5Z" transform="translate(-130.77 -239.565)"/>
          <g id="组_882" data-name="组 882" transform="translate(0 1.178)">
            <path id="路径_406" data-name="路径 406" class="cls-10" d="M134.83,233.206s22.619,4.369,18.72-12.166c-1.277-5.478-12.67-7.831-22.619-5.276-9.713,2.487-18.048,9.746-16.031,15.964C119.471,245.776,134.83,233.206,134.83,233.206Z" transform="translate(-114.502 -214.573)"/>
            <g id="组_881" data-name="组 881">
              <path id="路径_407" data-name="路径 407" d="M134.61,233.061a27.294,27.294,0,0,0,12.334-.235,9.415,9.415,0,0,0,6.117-4.436c1.344-2.621,1.378-6.89-.269-9.343-2.353-3.5-7.629-4.436-11.494-4.705a32.722,32.722,0,0,0-16.905,3.327c-4.067,2.05-8.7,5.377-9.881,10.049-.84,3.394,1.109,7.629,4.067,9.444,5.075,3.126,12.133-.874,16.166-4.134a.155.155,0,1,0-.2-.235c-3.394,2.756-8.234,5.512-12.738,5.109-3.865-.37-6.856-4.067-7.192-7.864-.437-4.873,4.369-8.805,8.1-11.057a31.53,31.53,0,0,1,16-4.369c4.3-.034,10.116.538,13.242,3.9,2.185,2.353,2.285,6.957.874,9.747-1.21,2.386-3.63,3.7-6.15,4.369a27.785,27.785,0,0,1-12,.168C134.442,232.691,134.408,232.993,134.61,233.061Z" transform="translate(-114.316 -214.26)"/>
            </g>
          </g>
          <path id="路径_408" data-name="路径 408" d="M160.463,213.392c.471,2.05-1.647,4.336-4.772,5.075s-6.05-.336-6.52-2.42c-.471-2.05,1.647-4.335,4.772-5.075C157.069,210.267,159.993,211.342,160.463,213.392Z" transform="translate(-137.413 -210.756)"/>
          <g id="组_884" data-name="组 884" transform="translate(10.706 19.098)">
            <path id="路径_409" data-name="路径 409" class="cls-19" d="M161.655,269.142c-.067.1.1-.067,0,0a7.364,7.364,0,0,1-8.4,2.218,55.982,55.982,0,0,1-6.453,2.453c4.705,2.05,6.755,2.621,13.477.571,7.091-2.151,9.141-6.285,9.141-6.285A21.285,21.285,0,0,1,161.655,269.142Z" transform="translate(-146.589 -267.925)"/>
            <g id="组_883" data-name="组 883">
              <path id="路径_410" data-name="路径 410" d="M161.372,268.9h0c.1-.2-.168-.37-.269-.2-.84,1.58-3.26,2.487-4.907,2.622-1.109.1-2.117-.4-3.159-.4a6.732,6.732,0,0,0-1.949.672,47.234,47.234,0,0,1-4.772,1.68.176.176,0,0,0-.034.336,18.233,18.233,0,0,0,6.587,1.848,23.335,23.335,0,0,0,8.4-1.748c2.89-1.075,6.419-2.991,7.864-5.915.067-.134-.1-.235-.235-.2a23.72,23.72,0,0,1-7.663,1.042c-.2,0-.235.336-.034.336a25.307,25.307,0,0,0,6.352-.6c.269-.067.907-.437,1.109-.471.269-.034.2-.336.1-.067a3.986,3.986,0,0,1-.538.773c-2.353,3.025-6.05,4.638-9.646,5.613a15.847,15.847,0,0,1-11.124-.471c-.135-.067-.538-.134-.639-.269s-.269.37.034,0c.1-.135.639-.2.773-.235.941-.3,1.848-.638,2.756-1.008,1.042-.4,1.949-1.143,3.025-.84,2.554.706,6.621.1,7.965-2.487.1-.2-.168-.37-.269-.2h0C161,268.9,161.271,269.1,161.372,268.9Z" transform="translate(-146.171 -267.581)"/>
            </g>
          </g>
        </g>
        <g id="组_887" data-name="组 887">
          <path id="路径_411" data-name="路径 411" class="cls-20" d="M56.5,19.559l5.176,20.568.2-.067c1.042,3.8,13.107,4.537,24.3,1.714s21.509-9.142,20.636-13.006h0L101.5,8.3Z" transform="translate(-37.511 -5.51)"/>
          <g id="组_886" data-name="组 886" transform="translate(18.989 9.242)">
            <path id="路径_412" data-name="路径 412" class="cls-21" d="M56.5,32.306l5.176,20.568h.034c.941,3.5,10.889,4.3,20.938,2.453L75.657,27.5Z" transform="translate(-56.5 -27.5)"/>
          </g>
          <path id="路径_413" data-name="路径 413" class="cls-22" d="M84.29.1,38.045,1.579,0,20.131l.336,1.378L48.195,20.7,84.626,1.478Z" transform="translate(0 -0.066)"/>
          <path id="路径_414" data-name="路径 414" class="cls-21" d="M.4,20.031,38.445,1.479,84.69,0,48.259,19.19Z" transform="translate(-0.266)"/>
          <path id="路径_415" data-name="路径 415" class="cls-23" d="M21.181,37.888l-1.781.034L51.6,27.1l1.311.538Z" transform="translate(-12.88 -17.992)"/>
          <path id="路径_416" data-name="路径 416" class="cls-20" d="M117.275,20.359c.235.975-2.42,2.487-5.915,3.361-3.529.874-6.554.807-6.789-.168s2.42-2.487,5.915-3.361S117.04,19.385,117.275,20.359Z" transform="translate(-69.417 -12.999)"/>
          <path id="路径_417" data-name="路径 417" class="cls-23" d="M24.509,73.349l-1.546.4L19.4,59.234l1.781-.034Z" transform="translate(-12.88 -39.304)"/>
          <path id="路径_418" data-name="路径 418" class="cls-23" d="M34.163,104.019a.6.6,0,0,1-.437.739l-5.478,1.378a.643.643,0,0,1-.739-.437l-.538-10.486a.614.614,0,0,1,.437-.739l1.546-.4a.614.614,0,0,1,.739.437Z" transform="translate(-17.897 -62.446)"/>
          <path id="路径_419" data-name="路径 419" class="cls-24" d="M28.149,89.039c-.034-.168-.134-.336-.3-.269L26,89.241c-.168.034-.437.3-.4.471s.235.941.269,1.109.4.235.571.2l1.848-.471c.168-.034.2-.2.134-.37C28.384,89.98,28.182,89.173,28.149,89.039Z" transform="translate(-16.991 -58.926)"/>
          <path id="路径_420" data-name="路径 420" class="cls-24" d="M27.117,84.2a1.333,1.333,0,1,1-1.613-.975A1.363,1.363,0,0,1,27.117,84.2Z" transform="translate(-16.261 -55.233)"/>
          <path id="路径_421" data-name="路径 421" class="cls-20" d="M142.1,19.458l.37,1.378,36.5-19.291L178.633.2Z" transform="translate(-94.342 -0.133)"/>
        </g>
      </g>
    </g>
  </g>
</svg>
